<svg width="1024" height="1024" viewBox="0 0 1024 1024" fill="none" xmlns="http://www.w3.org/2000/svg">
<path d="M850.694 1024H799.625C794.353 1024 790.509 1022.79 788.093 1020.36C785.677 1017.93 784.469 1014.08 784.469 1008.78V794.406C784.469 791.539 784.798 789.113 785.457 787.128C786.336 785.143 787.544 783.489 789.081 782.165L831.584 746.105C832.682 745.223 834.11 744.562 835.867 744.12C837.844 743.459 839.931 743.128 842.127 743.128H942.948C958.543 743.128 971.613 744.782 982.156 748.09C992.699 751.399 1001.05 756.03 1007.2 761.985C1013.35 767.94 1017.63 775.108 1020.05 783.489C1022.68 791.87 1024 801.023 1024 810.947V853.293C1024 863.88 1022.46 873.584 1019.39 882.406C1016.53 891.007 1011.48 898.396 1004.23 904.571L961.399 940.301C955.908 944.932 948.769 948.792 939.983 951.88C931.416 954.747 920.873 956.401 908.353 956.842V972.722C908.353 975.589 907.913 978.015 907.035 980C906.376 981.985 905.278 983.639 903.74 984.962L860.908 1020.69C860.029 1021.57 858.601 1022.35 856.624 1023.01C854.867 1023.67 852.89 1024 850.694 1024ZM893.197 984.631C897.37 984.631 900.335 983.749 902.093 981.985C904.069 980 905.058 976.912 905.058 972.722V917.804H942.948C972.821 917.804 993.249 911.85 1004.23 899.94C1015.21 888.03 1020.71 872.481 1020.71 853.293V810.947C1020.71 791.759 1015.21 776.211 1004.23 764.301C993.249 752.391 972.821 746.436 942.948 746.436H842.127C837.954 746.436 834.879 747.429 832.902 749.414C831.145 751.178 830.266 754.155 830.266 758.346V972.722C830.266 976.912 831.145 980 832.902 981.985C834.879 983.749 837.954 984.631 842.127 984.631H893.197ZM938.335 889.684H870.463V954.857H867.168V776.211H938.335C948.659 776.211 957.006 777.424 963.376 779.85C969.965 782.055 975.017 785.143 978.532 789.113C982.046 793.083 984.462 797.825 985.78 803.338C987.098 808.852 987.757 814.807 987.757 821.203V845.684C987.757 852.08 987.098 858.035 985.78 863.549C984.462 868.842 982.046 873.474 978.532 877.444C975.017 881.193 969.965 884.17 963.376 886.376C957.006 888.581 948.659 889.684 938.335 889.684ZM870.463 886.376H938.335C948 886.376 955.798 885.383 961.728 883.398C967.879 881.413 972.601 878.657 975.896 875.128C979.191 871.378 981.387 867.078 982.486 862.226C983.803 857.153 984.462 851.639 984.462 845.684V821.203C984.462 815.248 983.803 809.734 982.486 804.662C981.387 799.589 979.191 795.178 975.896 791.429C972.601 787.679 967.879 784.812 961.728 782.827C955.798 780.622 948 779.519 938.335 779.519H870.463V886.376ZM904.399 808.301H934.052C940.422 808.301 944.595 809.955 946.572 813.263C948.549 816.571 949.538 820.321 949.538 824.511V842.045C949.538 846.236 948.549 849.985 946.572 853.293C944.595 856.601 940.422 858.256 934.052 858.256H904.399V808.301Z" fill="black"/>
<path d="M242.748 1024H55.5543C36.2311 1024 22.1412 1019.58 13.2847 1010.73C4.42824 1001.89 0 987.816 0 968.518V186.949C0 176.496 1.2077 167.651 3.62311 160.415C6.84365 153.178 11.2719 147.147 16.9078 142.323L172.702 10.8551C176.727 7.63879 181.961 5.22652 188.402 3.61833C195.648 1.20611 203.297 0 211.348 0H580.905C638.07 0 685.975 6.03062 724.622 18.0919C763.268 30.1531 793.863 47.0388 816.407 68.7491C838.951 90.4593 854.651 116.592 863.508 147.147C873.169 177.702 878 211.072 878 247.256V401.64C878 440.236 872.364 475.615 861.092 507.779C850.625 539.138 832.107 566.075 805.538 588.589L648.536 718.85C628.408 735.736 602.241 749.808 570.036 761.065C538.635 771.518 499.989 777.548 454.096 779.157V837.051C454.096 847.504 452.486 856.349 449.265 863.585C446.85 870.822 442.824 876.853 437.188 881.677L280.187 1011.94C276.967 1015.16 271.733 1017.97 264.487 1020.38C258.046 1022.79 250.8 1024 242.748 1024ZM398.542 880.471C413.84 880.471 424.709 877.255 431.15 870.822C438.396 863.585 442.019 852.328 442.019 837.051V636.834H580.905C690.404 636.834 765.281 615.124 805.538 571.703C845.795 528.283 865.923 471.595 865.923 401.64V247.256C865.923 177.3 845.795 120.612 805.538 77.192C765.281 33.7715 690.404 12.0612 580.905 12.0612H211.348C196.05 12.0612 184.779 15.6796 177.532 22.9164C171.091 29.349 167.871 40.2042 167.871 55.4817V837.051C167.871 852.328 171.091 863.585 177.532 870.822C184.779 877.255 196.05 880.471 211.348 880.471H398.542ZM563.997 534.313H315.21V771.92H303.133V120.612H563.997C601.839 120.612 632.434 125.035 655.783 133.88C679.937 141.921 698.455 153.178 711.337 167.651C724.219 182.125 733.076 199.413 737.906 219.515C742.737 239.617 745.153 261.327 745.153 284.645V373.899C745.153 397.217 742.737 418.927 737.906 439.029C733.076 458.327 724.219 475.213 711.337 489.687C698.455 503.356 679.937 514.211 655.783 522.252C632.434 530.293 601.839 534.313 563.997 534.313ZM315.21 522.252H563.997C599.423 522.252 628.006 518.634 649.744 511.397C672.288 504.16 689.598 494.109 701.675 481.244C713.752 467.574 721.804 451.895 725.829 434.205C730.66 415.711 733.076 395.609 733.076 373.899V284.645C733.076 262.935 730.66 242.833 725.829 224.339C721.804 205.845 713.752 189.764 701.675 176.094C689.598 162.425 672.288 151.972 649.744 144.735C628.006 136.694 599.423 132.674 563.997 132.674H315.21V522.252ZM439.604 237.607H548.297C571.646 237.607 586.944 243.637 594.19 255.698C601.436 267.76 605.059 281.429 605.059 296.707V360.631C605.059 375.909 601.436 389.578 594.19 401.64C586.944 413.701 571.646 419.731 548.297 419.731H439.604V237.607Z" fill="black"/>
</svg>
